<svg width="24" height="24" viewBox="0 0 24 24" xmlns="http://www.w3.org/2000/svg">
<path fill-rule="evenodd" clip-rule="evenodd" d="M10.1585 4.20755C9.36258 4.39605 8.59673 4.70633 7.88895 5.13062C6.64681 5.87523 5.6301 6.94306 4.94726 8.2202C4.26443 9.49734 3.94108 10.9359 4.01172 12.3824C4.08236 13.8289 4.54432 15.2291 5.34835 16.4336C6.15237 17.6381 7.26828 18.6018 8.57706 19.2219C9.88583 19.8419 11.3384 20.0951 12.7797 19.9543C14.2211 19.8136 15.5972 19.2842 16.7613 18.4226C17.3303 18.0016 17.8382 17.5089 18.2736 16.959C17.1466 17.0622 16.0018 16.9401 14.9079 16.5901C13.0149 15.9844 11.3941 14.7345 10.3271 13.0578C9.26009 11.381 8.81438 9.38337 9.06746 7.41207C9.21367 6.27315 9.58779 5.18464 10.1585 4.20755ZM12.1266 2.00019H12.393C12.8042 2.00019 13.1734 2.25184 13.3238 2.63451C13.4741 3.01719 13.3749 3.45288 13.0737 3.73275C11.9604 4.7673 11.2447 6.15928 11.0512 7.66674C10.8576 9.1742 11.1985 10.7018 12.0144 11.9841C12.8304 13.2663 14.0698 14.2221 15.5174 14.6852C16.9649 15.1484 18.529 15.0897 19.9377 14.5193C20.3115 14.368 20.7396 14.4559 21.0234 14.7423C21.3072 15.0288 21.3912 15.4576 21.2365 15.83C20.5417 17.5016 19.4062 18.9533 17.9511 20.0303C16.496 21.1072 14.7758 21.7689 12.9741 21.9448C11.1724 22.1208 9.35674 21.8044 7.72077 21.0293C6.0848 20.2542 4.68991 19.0496 3.68488 17.544C2.67986 16.0383 2.1024 14.2881 2.0141 12.4799C1.92581 10.6718 2.32999 8.87363 3.18353 7.2772C4.03707 5.68078 5.30796 4.34599 6.86063 3.41522C8.4133 2.48446 10.1895 1.99262 11.9998 1.99219C12.0423 1.99218 12.0848 1.99488 12.1266 2.00019Z"/>
</svg>
