<?xml version="1.0" encoding="UTF-8"?>
<svg id="Layer_1" xmlns="http://www.w3.org/2000/svg" version="1.1" viewBox="0 0 690.2 164.7">
  <!-- Generator: Adobe Illustrator 29.7.1, SVG Export Plug-In . SVG Version: 2.1.1 Build 8)  -->
  <defs>
    <style>
      .st0 {
        fill: #fff;
      }
    </style>
  </defs>
  <g id="Layer_2">
    <g id="Capa_1">
      <path id="path3284" class="st0" d="M63.9,32.7l-20.4-21.7h5.5l14.9,15.9,14.9-15.9h5.5l-20.4,21.7ZM0,66.2v5.9l63.9,69.6,63.7-69.4v-5.9l-63.7,69.4L0,66.2ZM0,22.6v5.9l63.9,69.5L127.6,28.6v-5.8l-63.7,69.4L0,22.6ZM7.9,11H2.4l61.5,65.4L125.4,11h-5.5l-56,59.5L7.9,11ZM0,44.4v5.9l63.9,69.6,63.7-69.4v-5.9l-63.7,69.4L0,44.4ZM63.9,48.7L28.5,11h-5.5l40.9,43.6L104.8,11h-5.5l-35.4,37.7ZM0,88.1v4.7l63.9,69.6,63.7-69.4v-4.7l-63.7,69.4L0,88.1Z"/>
      <path id="path3297" class="st0" d="M277,139.9h-29.9l-36.9-108.5h29.1l18.8,67.6c2.3,8.3,3.8,17.5,3.8,17.5h.4s1.5-9.2,3.8-17.5l18.7-67.6h29l-36.8,108.5ZM371.3,142.3c-28.2,0-43-12.1-43-40.2V31.4h25.7v71.2c0,11.7,5.9,17.1,17.2,17.1,6.6,0,12.1-1.2,15-2.4V31.4h25.8v103c-8.9,4.6-24.8,7.8-40.7,7.9h0ZM502.3,139.9v-74.1c0-16.1-9.3-26.6-27.8-26.6-10.2,0-19.1,2-24.8,4.4v96.2h-11.2V36.8c9.3-4.4,22-7.5,36-7.5,25.4,0,39,13.5,39,35.8v74.7l-11.2.1ZM621.7,80.7l-71.6,11.3c1.5,26.6,15.5,40.1,37.1,40.1,10.2,0,21.2-2.8,27.7-6.8l3.8,9.3c-6.8,4.2-18.9,7.4-31.8,7.4-29.2,0-47.5-19.5-47.5-56.3,0-33.4,16.5-56.2,43.2-56.2,23.7,0,39.4,16.3,39.4,44.9-.1,1.9-.1,3.9-.3,6.3h0ZM582.5,38.8c-20.1,0-32.4,17.5-32.9,44.1l61.5-9.4c-.2-23.6-11.6-34.7-28.6-34.7ZM680,140.8c-15.1,0-25.9-8.9-25.9-27.2V40.5h-15.9v-9.1h15.9V4.4L664.8,0v31.4h23.2v9.1h-23.2v72.9c0,12.1,7.8,17.1,16.9,17.1,2.1,0,4.2-.3,6.2-1v10.3c-1.7.7-4.3,1.1-7.9,1h0Z"/>
    </g>
  </g>
</svg>